<svg xmlns="http://www.w3.org/2000/svg" width="200" height="200" viewBox="0 0 200 200" fill="none"><defs><linearGradient id="g-brand" x1="0" y1="0" x2="1" y2="1"><stop offset="0%" stop-color="#8b5cf6"/><stop offset="100%" stop-color="#3b82f6"/></linearGradient><linearGradient id="g-tri" x1="0" y1="0" x2="1" y2="1"><stop offset="0%" stop-color="#667eea"/><stop offset="45%" stop-color="#764ba2"/><stop offset="100%" stop-color="#00d2ff"/></linearGradient><linearGradient id="g-morm" x1="0" y1="0" x2="1" y2="1"><stop offset="0%" stop-color="#fbbf24"/><stop offset="100%" stop-color="#d97706"/></linearGradient></defs><g stroke="#8b5cf6" stroke-width="0.6" opacity="0.12"><line x1="86" y1="70" x2="112" y2="64"/><line x1="112" y1="64" x2="120" y2="88"/><line x1="86" y1="70" x2="92" y2="92"/></g><circle cx="65.5" cy="84.5" r="0.97" fill="#6b7280" opacity="0.30"/><circle cx="145.0" cy="79.5" r="1.88" fill="#8b5cf6" opacity="0.25"/><circle cx="50.1" cy="63.8" r="0.85" fill="#8b5cf6" opacity="0.21"/><circle cx="88.1" cy="46.3" r="1.67" fill="#8b5cf6" opacity="0.27"/><circle cx="101.0" cy="88.7" r="1.41" fill="#6b7280" opacity="0.43"/><circle cx="46.4" cy="50.6" r="1.26" fill="#6b7280" opacity="0.15"/><circle cx="123.3" cy="91.9" r="1.61" fill="#6b7280" opacity="0.34"/><circle cx="90.2" cy="82.2" r="1.12" fill="#8b5cf6" opacity="0.44"/><circle cx="87.2" cy="129.7" r="1.04" fill="#6b7280" opacity="0.13"/><circle cx="105.5" cy="73.8" r="1.25" fill="#6b7280" opacity="0.46"/><circle cx="138.9" cy="82.6" r="1.89" fill="#8b5cf6" opacity="0.28"/><circle cx="88.2" cy="71.4" r="1.49" fill="#6b7280" opacity="0.42"/><circle cx="100.5" cy="79.3" r="0.90" fill="#6b7280" opacity="0.49"/><circle cx="110.8" cy="78.9" r="1.40" fill="#6b7280" opacity="0.44"/><circle cx="67.3" cy="92.4" r="1.57" fill="#8b5cf6" opacity="0.29"/><circle cx="83.2" cy="70.6" r="1.53" fill="#6b7280" opacity="0.39"/><circle cx="145.9" cy="91.0" r="1.53" fill="#8b5cf6" opacity="0.23"/><circle cx="91.1" cy="139.7" r="2.00" fill="#8b5cf6" opacity="0.08"/><circle cx="79.3" cy="20.4" r="1.08" fill="#6b7280" opacity="0.08"/><circle cx="133.6" cy="85.5" r="1.61" fill="#6b7280" opacity="0.31"/><circle cx="101.7" cy="69.3" r="1.22" fill="#6b7280" opacity="0.44"/><circle cx="64.4" cy="61.3" r="1.28" fill="#6b7280" opacity="0.27"/><text x="100" y="150" text-anchor="middle" font-family="Inter, Geist, system-ui, -apple-system, sans-serif" font-size="12" font-weight="500" fill="#6b7280" opacity="0.5">No Data</text></svg>